<svg xmlns="http://www.w3.org/2000/svg" xmlns:xlink="http://www.w3.org/1999/xlink" width="100" zoomAndPan="magnify" viewBox="0 0 75 74.999997" height="100" preserveAspectRatio="xMidYMid meet" version="1.2"><defs><clipPath id="025a289c95"><path d="M 15 8 L 65 8 L 65 64 L 15 64 Z M 15 8 "/></clipPath><clipPath id="b3689e44b3"><path d="M 10.164062 58.386719 L 55.523438 4.417969 L 67.582031 14.550781 L 22.222656 68.523438 Z M 10.164062 58.386719 "/></clipPath><clipPath id="7ba5e0d5a2"><path d="M 10.164062 58.386719 L 55.523438 4.417969 L 67.582031 14.550781 L 22.222656 68.523438 Z M 10.164062 58.386719 "/></clipPath></defs><g id="a22dd0e015"><g clip-rule="nonzero" clip-path="url(#025a289c95)"><g clip-rule="nonzero" clip-path="url(#b3689e44b3)"><g clip-rule="nonzero" clip-path="url(#7ba5e0d5a2)"><path style=" stroke:none;fill-rule:nonzero;fill:#ff7722;fill-opacity:1;" d="M 19.558594 57.152344 C 19.476562 57.082031 18.242188 57.304688 18.148438 57.417969 C 18.160156 57.710938 18.25 57.976562 18.285156 58.269531 C 18.378906 58.871094 18.417969 59.472656 18.496094 60.085938 C 17.554688 60.246094 16.488281 60.46875 15.84375 61.234375 C 15.492188 61.652344 15.171875 62.597656 15.675781 63.019531 C 15.773438 63.101562 15.882812 63.167969 16.003906 63.222656 C 16.429688 63.394531 17.953125 63.054688 18.257812 62.691406 C 18.527344 62.371094 18.574219 61.863281 18.238281 61.582031 C 17.890625 61.289062 17.292969 61.574219 16.898438 61.621094 C 16.945312 61.449219 17.023438 61.273438 17.152344 61.121094 C 17.503906 60.703125 18.105469 60.664062 18.625 60.671875 C 18.753906 61.449219 18.964844 62.386719 19.609375 62.925781 C 20.09375 63.335938 21.632812 63.03125 22.019531 62.574219 C 22.5 62 22.085938 60.964844 21.585938 60.542969 C 21.140625 60.167969 20.523438 60.078125 19.949219 60.027344 C 19.894531 59.667969 19.644531 57.222656 19.558594 57.152344 Z M 16.851562 62.605469 C 16.671875 62.457031 16.769531 62.085938 16.855469 61.894531 C 16.96875 62.015625 17.226562 62.445312 17.097656 62.597656 C 17.027344 62.65625 16.9375 62.675781 16.851562 62.605469 Z M 20.527344 62.339844 C 20.207031 62.070312 20.019531 61.132812 20.089844 60.738281 C 20.296875 60.746094 20.5 60.84375 20.652344 60.972656 C 20.972656 61.242188 21.265625 61.941406 20.960938 62.304688 C 20.84375 62.441406 20.664062 62.457031 20.527344 62.339844 Z M 24.089844 54.335938 C 24.84375 55.109375 24.820312 56.070312 24.140625 56.878906 C 23.910156 57.15625 23.261719 57.753906 22.871094 57.425781 C 22.59375 57.191406 22.855469 56.769531 23.042969 56.546875 C 23.195312 56.367188 23.402344 56.230469 23.554688 56.050781 C 23.953125 55.574219 23.863281 55.003906 23.402344 54.617188 C 23.167969 54.417969 22.898438 54.285156 22.585938 54.261719 C 21.855469 54.195312 20.40625 54.617188 19.75 54.972656 C 19.714844 55.011719 19.722656 55.0625 19.761719 55.097656 C 20.011719 55.308594 21.324219 54.316406 21.976562 54.867188 C 22.4375 55.253906 22.539062 55.816406 22.140625 56.289062 C 21.976562 56.484375 21.757812 56.65625 21.59375 56.851562 C 21.335938 57.160156 21.25 57.515625 21.585938 57.796875 C 21.835938 58.007812 22.203125 58.054688 22.523438 58.011719 C 23.675781 57.914062 24.820312 57.398438 25.582031 56.496094 C 26.167969 55.796875 26.28125 54.703125 25.515625 54.058594 C 25.375 53.941406 24.289062 54.242188 24.089844 54.335938 Z M 26.269531 56.382812 C 26.257812 56.398438 26.257812 56.398438 26.246094 56.386719 Z M 22.417969 52.644531 C 22.3125 52.773438 22.449219 52.980469 22.546875 53.0625 L 25.789062 55.765625 C 25.972656 55.917969 26.132812 56.125 26.039062 56.378906 C 26.246094 56.386719 27.320312 56.265625 27.4375 56.125 C 27.765625 55.738281 26.546875 54.925781 26.433594 54.832031 L 24.023438 52.832031 C 23.871094 52.703125 23.71875 52.597656 23.84375 52.367188 C 23.625 52.375 22.546875 52.492188 22.417969 52.644531 Z M 42.804688 37.050781 C 42.972656 37.078125 43.234375 37.246094 43.359375 37.351562 C 44.988281 38.722656 43.339844 41.59375 42.296875 42.832031 C 39.800781 45.800781 36.199219 46.722656 32.492188 47.222656 C 32.613281 47.109375 32.71875 46.984375 32.824219 46.859375 C 33.046875 46.59375 33.199219 46.269531 33.261719 45.941406 C 33.480469 45.910156 33.679688 45.84375 33.890625 45.757812 C 33.632812 45.445312 33.691406 44.78125 33.949219 44.476562 C 34.207031 44.167969 34.40625 44.242188 34.6875 44.074219 L 34.660156 44.050781 C 34.234375 44.023438 33.5625 44.199219 33.164062 44.363281 C 33.042969 44.023438 32.96875 43.628906 32.679688 43.382812 C 32.148438 42.9375 30.164062 43.433594 29.71875 43.960938 C 29.320312 44.4375 29.085938 45.335938 29.628906 45.792969 C 29.714844 45.863281 29.824219 45.929688 29.929688 45.949219 C 30.101562 45.996094 31.167969 45.777344 31.300781 45.671875 C 31.21875 45.628906 31.136719 45.585938 31.066406 45.527344 C 30.621094 45.152344 30.535156 44.460938 30.910156 44.015625 C 31.085938 43.804688 31.269531 43.671875 31.519531 43.882812 C 32.148438 44.410156 32.382812 45.773438 31.84375 46.414062 L 31.785156 46.484375 C 31.527344 46.507812 30.585938 46.664062 30.433594 46.847656 C 30.210938 47.113281 30.398438 47.507812 30.632812 47.683594 C 35.328125 47.25 40.511719 46.375 43.71875 42.554688 C 44.761719 41.316406 46.414062 38.445312 44.78125 37.074219 C 44.253906 36.628906 43.308594 36.453125 42.804688 37.050781 Z M 35.441406 40.664062 C 35.511719 40.746094 35.644531 40.785156 35.726562 40.855469 C 36.410156 41.429688 36.394531 42.273438 35.84375 42.929688 C 35.539062 43.289062 35.085938 43.601562 34.65625 43.238281 C 33.75 42.476562 35.207031 40.65625 34.609375 40.152344 C 34.398438 39.976562 33.265625 40.191406 33.101562 40.363281 C 33.140625 40.371094 33.167969 40.394531 33.195312 40.417969 C 33.808594 40.933594 32.453125 42.859375 33.441406 43.691406 C 34.304688 44.417969 36.582031 43.378906 37.226562 42.613281 C 37.738281 42 37.808594 41.15625 37.152344 40.605469 C 37.054688 40.523438 36.929688 40.417969 36.8125 40.386719 C 36.640625 40.339844 35.558594 40.550781 35.441406 40.664062 Z M 37.746094 42.730469 C 37.734375 42.746094 37.734375 42.746094 37.71875 42.734375 Z M 33.894531 38.992188 C 33.789062 39.121094 33.921875 39.328125 34.019531 39.410156 L 37.265625 42.113281 C 37.445312 42.265625 37.605469 42.472656 37.511719 42.726562 C 37.71875 42.734375 38.792969 42.613281 38.910156 42.472656 C 39.238281 42.085938 38.019531 41.273438 37.90625 41.179688 L 35.5 39.179688 C 35.34375 39.050781 35.195312 38.945312 35.316406 38.714844 C 35.097656 38.722656 34.023438 38.839844 33.894531 38.992188 Z M 39.003906 41.234375 C 38.992188 41.246094 38.992188 41.246094 38.980469 41.234375 Z M 35.152344 37.496094 C 35.046875 37.621094 35.183594 37.828125 35.28125 37.910156 L 38.523438 40.613281 C 38.707031 40.765625 38.867188 40.972656 38.769531 41.226562 C 38.980469 41.234375 40.054688 41.117188 40.171875 40.976562 C 40.5 40.585938 39.277344 39.773438 39.167969 39.679688 L 36.757812 37.679688 C 36.605469 37.550781 36.453125 37.449219 36.574219 37.21875 C 36.355469 37.222656 35.28125 37.34375 35.152344 37.496094 Z M 40.265625 39.734375 C 40.253906 39.746094 40.253906 39.746094 40.238281 39.734375 Z M 36.414062 35.996094 C 36.308594 36.121094 36.441406 36.332031 36.539062 36.414062 L 39.785156 39.117188 C 39.964844 39.269531 40.125 39.476562 40.03125 39.726562 C 40.238281 39.734375 41.3125 39.617188 41.429688 39.476562 C 41.757812 39.085938 40.539062 38.277344 40.425781 38.183594 L 38.015625 36.179688 C 37.863281 36.050781 37.714844 35.949219 37.835938 35.71875 C 37.617188 35.726562 36.542969 35.84375 36.414062 35.996094 Z M 33.914062 30.152344 C 32.722656 31.574219 31.871094 34.308594 33.542969 35.714844 C 33.710938 35.855469 33.910156 35.960938 34.117188 36.054688 C 34.714844 36.332031 37.054688 36.40625 37.5 35.878906 C 37.296875 35.777344 35.890625 36.238281 34.957031 35.453125 C 33.703125 34.398438 33.910156 32.167969 34.648438 30.863281 C 34.863281 30.496094 35.105469 30.152344 35.375 29.832031 C 35.84375 29.273438 36.765625 28.316406 37.535156 28.960938 C 38.507812 29.78125 37.738281 31.628906 38.421875 32.203125 C 38.742188 32.472656 40.042969 32.285156 40.308594 32.054688 L 40.28125 32.03125 C 40.089844 32.058594 39.972656 32.058594 39.820312 31.929688 C 39.152344 31.367188 39.917969 29.492188 38.972656 28.695312 C 38.039062 27.910156 35.867188 28.511719 34.976562 29.144531 C 34.574219 29.421875 34.230469 29.777344 33.914062 30.152344 Z M 41.621094 34.808594 L 39.863281 33.332031 C 39.765625 33.25 38.546875 33.484375 38.453125 33.597656 L 38.441406 33.613281 C 38.441406 33.753906 38.410156 33.871094 38.316406 33.984375 C 38.1875 34.136719 38.03125 34.242188 37.902344 34.394531 C 37.761719 34.5625 37.640625 34.792969 37.847656 34.96875 C 37.988281 35.085938 39.183594 34.878906 39.3125 34.726562 C 39.132812 34.574219 39.109375 34.457031 39.21875 34.242188 L 40.628906 35.425781 C 40.851562 35.613281 40.925781 35.890625 40.832031 36.167969 C 41.058594 36.214844 42.117188 36.058594 42.246094 35.90625 C 42.304688 35.835938 42.292969 35.539062 42.269531 35.449219 L 43.933594 33.472656 C 43.785156 33.394531 42.628906 33.609375 42.523438 33.734375 Z M 44.035156 35.246094 C 44.023438 35.261719 44.023438 35.261719 44.011719 35.25 Z M 40.183594 31.507812 C 40.078125 31.632812 40.214844 31.84375 40.3125 31.925781 L 43.554688 34.628906 C 43.738281 34.78125 43.898438 34.988281 43.804688 35.242188 C 44.011719 35.25 45.085938 35.128906 45.203125 34.988281 C 45.53125 34.597656 44.308594 33.789062 44.199219 33.695312 L 41.789062 31.691406 C 41.636719 31.5625 41.484375 31.460938 41.609375 31.230469 C 41.386719 31.238281 40.3125 31.355469 40.183594 31.507812 Z M 46.214844 28.183594 C 46.089844 28.078125 44.894531 28.285156 44.761719 28.410156 C 45.6875 29.121094 42.425781 31.132812 43.972656 32.433594 C 44.542969 32.914062 46.265625 32.648438 46.722656 32.105469 C 47.0625 31.703125 46.910156 31.121094 46.53125 30.804688 C 46.113281 30.453125 45.699219 30.410156 45.183594 30.457031 C 45.421875 30.058594 46.730469 28.617188 46.214844 28.183594 Z M 44.96875 32.128906 C 44.648438 31.859375 44.757812 31.332031 44.933594 31.007812 C 45.101562 31.003906 45.261719 31.070312 45.402344 31.1875 C 45.640625 31.386719 45.808594 31.835938 45.585938 32.101562 C 45.433594 32.28125 45.136719 32.269531 44.96875 32.128906 Z M 47.613281 30.988281 C 47.601562 31 47.601562 31 47.589844 30.988281 Z M 43.761719 27.25 C 43.65625 27.375 43.792969 27.585938 43.890625 27.667969 L 47.136719 30.371094 C 47.316406 30.523438 47.476562 30.730469 47.382812 30.980469 C 47.589844 30.988281 48.664062 30.871094 48.78125 30.730469 C 49.109375 30.339844 47.890625 29.53125 47.777344 29.4375 L 45.367188 27.433594 C 45.214844 27.304688 45.0625 27.203125 45.1875 26.972656 C 44.96875 26.980469 43.890625 27.097656 43.761719 27.25 Z M 48.875 29.488281 C 48.863281 29.503906 48.863281 29.503906 48.847656 29.492188 Z M 45.023438 25.753906 C 44.917969 25.878906 45.050781 26.085938 45.148438 26.167969 L 48.394531 28.871094 C 48.574219 29.023438 48.734375 29.230469 48.640625 29.484375 C 48.847656 29.492188 49.921875 29.371094 50.039062 29.234375 C 50.367188 28.84375 49.148438 28.03125 49.035156 27.9375 L 46.628906 25.9375 C 46.472656 25.808594 46.324219 25.703125 46.445312 25.472656 C 46.226562 25.480469 45.152344 25.597656 45.023438 25.753906 Z M 52.136719 23.597656 C 52.570312 23.960938 52.738281 24.414062 52.339844 24.886719 C 51.859375 25.457031 50.992188 25.726562 50.289062 25.828125 C 50.410156 25.738281 50.503906 25.652344 50.597656 25.539062 C 51.289062 24.71875 51.167969 23.59375 50.816406 22.652344 C 50.730469 22.441406 50.632812 22.214844 50.453125 22.0625 C 49.921875 21.621094 47.9375 22.113281 47.492188 22.644531 C 47.09375 23.117188 46.863281 24.015625 47.40625 24.472656 C 47.488281 24.542969 47.597656 24.613281 47.703125 24.628906 C 47.863281 24.667969 48.96875 24.453125 49.074219 24.355469 C 48.992188 24.308594 48.914062 24.265625 48.84375 24.207031 C 48.398438 23.832031 48.3125 23.140625 48.6875 22.695312 C 48.875 22.472656 49.042969 22.355469 49.308594 22.578125 C 49.921875 23.09375 50.167969 24.441406 49.617188 25.097656 L 49.558594 25.164062 C 49.300781 25.1875 48.359375 25.347656 48.207031 25.527344 C 47.984375 25.792969 48.171875 26.164062 48.394531 26.351562 C 48.742188 26.644531 52.066406 25.609375 52.613281 25.378906 C 53.011719 25.214844 53.433594 24.996094 53.714844 24.664062 C 54.148438 24.148438 54.023438 23.730469 53.546875 23.332031 C 53.421875 23.226562 52.320312 23.492188 52.136719 23.597656 Z M 54.332031 22.996094 C 54.320312 23.007812 54.320312 23.007812 54.308594 22.996094 Z M 50.480469 19.257812 C 50.375 19.382812 50.511719 19.589844 50.609375 19.671875 L 53.851562 22.378906 C 54.035156 22.53125 54.195312 22.734375 54.101562 22.988281 C 54.308594 22.996094 55.382812 22.878906 55.5 22.738281 C 55.828125 22.347656 54.605469 21.535156 54.496094 21.441406 L 52.085938 19.441406 C 51.933594 19.3125 51.78125 19.210938 51.90625 18.980469 C 51.683594 18.984375 50.609375 19.105469 50.480469 19.257812 Z M 56.152344 16.1875 C 56.90625 16.960938 56.886719 17.921875 56.207031 18.730469 C 55.972656 19.007812 55.324219 19.605469 54.933594 19.277344 C 54.65625 19.042969 54.917969 18.621094 55.105469 18.398438 C 55.257812 18.21875 55.464844 18.082031 55.617188 17.902344 C 56.015625 17.425781 55.925781 16.855469 55.46875 16.46875 C 55.230469 16.269531 54.960938 16.136719 54.648438 16.113281 C 53.917969 16.046875 52.46875 16.46875 51.816406 16.824219 C 51.78125 16.863281 51.785156 16.914062 51.824219 16.949219 C 52.078125 17.160156 53.386719 16.167969 54.042969 16.71875 C 54.5 17.105469 54.601562 17.667969 54.203125 18.140625 C 54.039062 18.335938 53.820312 18.507812 53.65625 18.703125 C 53.398438 19.011719 53.3125 19.367188 53.648438 19.648438 C 53.898438 19.859375 54.265625 19.90625 54.585938 19.863281 C 55.738281 19.765625 56.882812 19.253906 57.644531 18.347656 C 58.230469 17.648438 58.34375 16.554688 57.578125 15.910156 C 57.4375 15.792969 56.351562 16.09375 56.152344 16.1875 Z M 58.332031 18.234375 C 58.320312 18.25 58.320312 18.25 58.308594 18.238281 Z M 54.480469 14.496094 C 54.375 14.625 54.511719 14.832031 54.609375 14.914062 L 57.855469 17.617188 C 58.035156 17.769531 58.195312 17.976562 58.101562 18.230469 C 58.308594 18.238281 59.382812 18.117188 59.5 17.980469 C 59.828125 17.589844 58.609375 16.777344 58.496094 16.683594 L 56.085938 14.683594 C 55.933594 14.554688 55.78125 14.449219 55.90625 14.21875 C 55.6875 14.226562 54.609375 14.34375 54.480469 14.496094 Z M 63.027344 12.652344 L 63.011719 12.640625 Z M 59.183594 8.902344 C 59.078125 9.027344 59.214844 9.234375 59.3125 9.316406 C 60.386719 10.21875 61.484375 11.121094 62.558594 12.019531 C 62.738281 12.171875 62.898438 12.378906 62.804688 12.632812 C 62.84375 12.640625 64.074219 12.535156 64.214844 12.367188 C 64.519531 12.007812 63.328125 11.21875 63.1875 11.101562 L 60.679688 8.992188 C 60.582031 8.910156 60.53125 8.773438 60.597656 8.636719 C 60.375 8.617188 59.3125 8.75 59.183594 8.902344 Z M 58.285156 11.785156 C 58.496094 11.535156 58.742188 11.691406 58.9375 11.855469 C 59.691406 12.488281 59.648438 13.074219 59.054688 13.8125 L 59.058594 13.835938 C 59.382812 13.871094 60.324219 13.714844 60.535156 13.460938 C 61.121094 12.765625 60.789062 12.058594 60.175781 11.542969 C 60.078125 11.460938 59.984375 11.402344 59.863281 11.351562 C 59.363281 11.121094 57.265625 11.523438 56.914062 11.941406 C 56.890625 11.96875 56.828125 12.105469 56.816406 12.144531 C 56.925781 12.210938 58.132812 11.964844 58.203125 11.882812 Z M 61.144531 13.449219 C 61.273438 13.914062 61.234375 14.191406 60.917969 14.566406 C 60.132812 15.5 58.917969 14.597656 58.234375 14.023438 C 58.109375 13.917969 57.226562 13.15625 57.167969 13.058594 C 57.109375 12.957031 57.160156 12.765625 57.140625 12.75 C 57.007812 12.683594 55.824219 12.902344 55.730469 13.011719 C 55.636719 13.125 55.730469 13.324219 55.828125 13.40625 C 56.230469 13.746094 56.648438 14.070312 57.050781 14.410156 C 58.40625 15.546875 58.691406 15.742188 60.460938 15.277344 C 61.167969 15.089844 61.898438 14.84375 62.378906 14.273438 C 62.542969 14.078125 62.804688 13.371094 62.566406 13.171875 C 62.484375 13.101562 61.238281 13.335938 61.144531 13.449219 Z M 61.144531 13.449219 "/></g></g></g></g></svg>