<svg xmlns="http://www.w3.org/2000/svg" xmlns:xlink="http://www.w3.org/1999/xlink" width="500" zoomAndPan="magnify" viewBox="0 0 375 374.999991" height="500" preserveAspectRatio="xMidYMid meet" version="1.2"><defs><clipPath id="05c408c956"><path d="M 11.160156 128.1875 L 363.660156 128.1875 L 363.660156 205.4375 L 11.160156 205.4375 Z M 11.160156 128.1875 "/></clipPath></defs><g id="db939841e3"><g clip-rule="nonzero" clip-path="url(#05c408c956)"><path style=" stroke:none;fill-rule:nonzero;fill:#ff7722;fill-opacity:1;" d="M 46.117188 160.171875 C 46.117188 159.625 41.292969 155.621094 40.5625 155.621094 C 39.472656 156.621094 38.742188 157.804688 37.742188 158.898438 C 35.738281 161.175781 33.554688 163.269531 31.460938 165.542969 C 27.820312 162.449219 23.539062 159.082031 18.535156 159.082031 C 15.800781 159.082031 11.160156 160.902344 11.160156 164.179688 C 11.160156 164.816406 11.25 165.453125 11.433594 166.089844 C 12.160156 168.273438 18.351562 173.007812 20.71875 173.007812 C 22.8125 173.007812 24.90625 171.550781 24.90625 169.367188 C 24.90625 167.09375 21.902344 165.726562 20.445312 164.359375 C 21.265625 163.996094 22.175781 163.722656 23.175781 163.722656 C 25.90625 163.722656 28 165.90625 29.640625 167.910156 C 27.089844 170.914062 24.175781 174.738281 24.175781 178.925781 C 24.175781 182.113281 30.277344 187.027344 33.28125 187.027344 C 37.011719 187.027344 39.652344 182.113281 39.652344 178.835938 C 39.652344 175.921875 38.015625 173.28125 36.375 170.914062 C 37.558594 169.550781 46.117188 160.71875 46.117188 160.171875 Z M 16.53125 167.363281 C 16.53125 166.183594 18.261719 165.363281 19.261719 165.089844 C 19.171875 165.90625 18.351562 168.273438 17.347656 168.273438 C 16.894531 168.183594 16.53125 167.910156 16.53125 167.363281 Z M 29.367188 180.566406 C 29.367188 178.472656 32.371094 174.738281 34.101562 173.738281 C 34.738281 174.554688 35.011719 175.648438 35.011719 176.652344 C 35.011719 178.742188 33.28125 182.113281 30.914062 182.113281 C 30.003906 182.113281 29.367188 181.476562 29.367188 180.566406 Z M 71.46875 168.457031 C 70.925781 173.828125 67.191406 176.832031 61.910156 176.832031 C 60.089844 176.832031 55.722656 176.285156 55.722656 173.738281 C 55.722656 171.917969 58.179688 171.550781 59.636719 171.550781 C 60.820312 171.550781 62.003906 171.917969 63.1875 171.917969 C 66.28125 171.917969 68.191406 169.730469 68.191406 166.726562 C 68.191406 165.179688 67.828125 163.722656 66.917969 162.449219 C 64.824219 159.445312 58.542969 155.257812 55.085938 153.890625 C 54.8125 153.890625 54.628906 154.074219 54.628906 154.347656 C 54.628906 155.984375 62.640625 157.804688 62.640625 162.085938 C 62.640625 165.089844 60.820312 167.273438 57.722656 167.273438 C 56.449219 167.273438 55.085938 167 53.808594 167 C 51.808594 167 50.167969 167.820312 50.167969 170.003906 C 50.167969 171.644531 51.171875 173.191406 52.351562 174.285156 C 56.449219 178.378906 62.09375 181.109375 68.011719 181.109375 C 72.5625 181.109375 77.117188 178.015625 77.117188 173.007812 C 77.117188 172.097656 72.472656 168.914062 71.46875 168.457031 Z M 70.652344 183.386719 C 70.558594 183.386719 70.558594 183.386719 70.558594 183.296875 Z M 72.5625 156.621094 C 71.742188 156.621094 71.378906 157.804688 71.378906 158.445312 L 71.46875 179.5625 C 71.46875 180.746094 71.199219 182.023438 69.921875 182.476562 C 70.558594 183.296875 74.472656 187.027344 75.382812 187.027344 C 77.933594 187.027344 77.117188 179.746094 77.117188 179.019531 L 77.023438 163.359375 C 77.023438 162.359375 76.933594 161.449219 78.207031 161.175781 C 77.480469 160.355469 73.5625 156.621094 72.5625 156.621094 Z M 197.828125 184.480469 C 198.28125 185.207031 198.464844 186.757812 198.464844 187.574219 C 198.464844 198.226562 182.171875 201.140625 174.070312 201.140625 C 154.675781 201.140625 139.566406 190.304688 125.726562 177.742188 C 126.546875 177.832031 127.367188 177.832031 128.183594 177.832031 C 129.917969 177.832031 131.644531 177.378906 133.101562 176.558594 C 133.921875 177.289062 134.832031 177.832031 135.832031 178.378906 C 136.199219 176.378906 138.929688 174.464844 140.929688 174.464844 C 142.933594 174.464844 143.296875 175.464844 144.84375 176.011719 L 144.84375 175.832031 C 143.570312 174.101562 140.75 172.097656 138.835938 171.097656 C 139.746094 169.550781 141.023438 168.003906 141.023438 166.089844 C 141.023438 162.632812 132.738281 156.621094 129.277344 156.621094 C 126.183594 156.621094 121.996094 158.625 121.996094 162.175781 C 121.996094 162.722656 122.085938 163.359375 122.359375 163.816406 C 122.722656 164.632812 127.003906 168.003906 127.820312 168.183594 C 127.730469 167.730469 127.640625 167.273438 127.640625 166.816406 C 127.640625 163.90625 130.007812 161.355469 132.917969 161.355469 C 134.285156 161.355469 135.378906 161.628906 135.378906 163.269531 C 135.378906 167.363281 130.917969 172.644531 126.730469 172.644531 L 126.273438 172.644531 C 125.363281 171.734375 121.722656 168.640625 120.539062 168.640625 C 118.808594 168.640625 117.898438 170.640625 117.988281 172.097656 C 134.742188 188.667969 154.769531 205.691406 179.710938 205.691406 C 187.8125 205.691406 204.109375 202.777344 204.109375 192.125 C 204.109375 188.667969 201.742188 184.480469 197.828125 184.480469 Z M 160.320312 167.910156 C 160.230469 168.457031 160.503906 169.09375 160.503906 169.640625 C 160.503906 174.101562 157.226562 176.742188 152.949219 176.742188 C 150.582031 176.742188 147.941406 176.011719 147.941406 173.191406 C 147.941406 167.273438 159.59375 167 159.59375 163.085938 C 159.59375 161.722656 155.132812 158.078125 153.949219 157.988281 C 154.039062 158.167969 154.039062 158.351562 154.039062 158.535156 C 154.039062 162.539062 142.296875 163.542969 142.296875 170.003906 C 142.296875 175.648438 153.585938 181.019531 158.59375 181.019531 C 162.597656 181.019531 166.054688 178.5625 166.054688 174.285156 C 166.054688 173.644531 166.054688 172.828125 165.785156 172.28125 C 165.421875 171.460938 161.140625 168.003906 160.320312 167.910156 Z M 159.820312 183.386719 C 159.730469 183.386719 159.730469 183.386719 159.730469 183.296875 Z M 161.730469 156.621094 C 160.914062 156.621094 160.550781 157.804688 160.550781 158.445312 L 160.640625 179.5625 C 160.640625 180.746094 160.367188 182.023438 159.09375 182.476562 C 159.730469 183.296875 163.644531 187.027344 164.554688 187.027344 C 167.101562 187.027344 166.285156 179.746094 166.285156 179.019531 L 166.191406 163.359375 C 166.191406 162.359375 166.101562 161.449219 167.378906 161.175781 C 166.648438 160.355469 162.734375 156.621094 161.730469 156.621094 Z M 169.605469 183.386719 C 169.515625 183.386719 169.515625 183.386719 169.515625 183.296875 Z M 171.519531 156.621094 C 170.699219 156.621094 170.335938 157.804688 170.335938 158.445312 L 170.425781 179.5625 C 170.425781 180.746094 170.152344 182.023438 168.878906 182.476562 C 169.515625 183.296875 173.429688 187.027344 174.339844 187.027344 C 176.890625 187.027344 176.070312 179.746094 176.070312 179.019531 L 175.980469 163.359375 C 175.980469 162.359375 175.890625 161.449219 177.164062 161.175781 C 176.433594 160.355469 172.519531 156.621094 171.519531 156.621094 Z M 179.394531 183.386719 C 179.304688 183.386719 179.304688 183.386719 179.304688 183.296875 Z M 181.304688 156.621094 C 180.484375 156.621094 180.121094 157.804688 180.121094 158.445312 L 180.214844 179.5625 C 180.214844 180.746094 179.9375 182.023438 178.664062 182.476562 C 179.304688 183.296875 183.21875 187.027344 184.128906 187.027344 C 186.675781 187.027344 185.855469 179.746094 185.855469 179.019531 L 185.765625 163.359375 C 185.765625 162.359375 185.675781 161.449219 186.949219 161.175781 C 186.21875 160.355469 182.304688 156.621094 181.304688 156.621094 Z M 195.644531 128.265625 C 186.359375 128.265625 173.15625 133.816406 173.15625 144.742188 C 173.15625 145.835938 173.386719 146.929688 173.703125 148.019531 C 174.570312 151.207031 181.804688 160.402344 185.265625 160.402344 C 184.992188 159.308594 178.710938 155.394531 178.710938 149.292969 C 178.710938 141.101562 187.90625 134.726562 195.277344 133.363281 C 197.371094 133 199.46875 132.816406 201.558594 132.816406 C 205.203125 132.816406 211.847656 133.273438 211.847656 138.28125 C 211.847656 144.652344 202.289062 147.65625 202.289062 152.117188 C 202.289062 154.210938 207.207031 158.578125 208.933594 158.851562 L 208.933594 158.671875 C 208.207031 158.035156 207.839844 157.578125 207.839844 156.578125 C 207.839844 152.207031 217.492188 149.113281 217.492188 142.921875 C 217.492188 136.824219 208.207031 130.449219 202.925781 129.085938 C 200.558594 128.445312 198.101562 128.265625 195.644531 128.265625 Z M 202.605469 172.734375 L 202.605469 161.265625 C 202.605469 160.628906 197.78125 156.714844 197.054688 156.714844 L 196.964844 156.714844 C 196.417969 157.167969 195.871094 157.441406 195.144531 157.441406 C 194.140625 157.441406 193.230469 157.167969 192.230469 157.167969 C 191.136719 157.167969 189.863281 157.441406 189.863281 158.808594 C 189.863281 159.71875 194.503906 163.632812 195.507812 163.632812 C 195.507812 162.449219 195.871094 161.992188 197.054688 161.722656 L 197.054688 170.914062 C 197.054688 172.371094 196.234375 173.554688 194.867188 174.101562 C 195.414062 175.101562 199.421875 178.652344 200.421875 178.652344 C 200.878906 178.652344 201.96875 177.652344 202.242188 177.289062 L 215.171875 177.289062 C 214.988281 176.46875 210.4375 172.734375 209.617188 172.734375 Z M 208.707031 183.386719 C 208.617188 183.386719 208.617188 183.386719 208.617188 183.296875 Z M 210.617188 156.621094 C 209.800781 156.621094 209.433594 157.804688 209.433594 158.445312 L 209.527344 179.5625 C 209.527344 180.746094 209.253906 182.023438 207.980469 182.476562 C 208.617188 183.296875 212.53125 187.027344 213.441406 187.027344 C 215.988281 187.027344 215.171875 179.746094 215.171875 179.019531 L 215.078125 163.359375 C 215.078125 162.359375 214.988281 161.449219 216.261719 161.175781 C 215.535156 160.355469 211.621094 156.621094 210.617188 156.621094 Z M 242.753906 169.003906 C 242.753906 168.183594 238.109375 164.269531 237.199219 164.179688 C 237.472656 170.003906 219.265625 163.996094 219.265625 174.101562 C 219.265625 177.832031 225.820312 183.570312 229.371094 183.570312 C 232.011719 183.570312 233.742188 181.109375 233.742188 178.652344 C 233.742188 175.921875 232.558594 174.191406 230.738281 172.371094 C 233.015625 172.007812 242.753906 172.371094 242.753906 169.003906 Z M 223.636719 176.921875 C 223.636719 174.832031 226.003906 173.554688 227.824219 173.191406 C 228.371094 173.828125 228.644531 174.648438 228.644531 175.558594 C 228.644531 177.105469 227.460938 179.199219 225.730469 179.199219 C 224.546875 179.199219 223.636719 178.015625 223.636719 176.921875 Z M 236.519531 183.386719 C 236.429688 183.386719 236.429688 183.386719 236.429688 183.296875 Z M 238.429688 156.621094 C 237.609375 156.621094 237.246094 157.804688 237.246094 158.445312 L 237.339844 179.5625 C 237.339844 180.746094 237.0625 182.023438 235.789062 182.476562 C 236.429688 183.296875 240.34375 187.027344 241.253906 187.027344 C 243.800781 187.027344 242.980469 179.746094 242.980469 179.019531 L 242.890625 163.359375 C 242.890625 162.359375 242.800781 161.449219 244.074219 161.175781 C 243.34375 160.355469 239.429688 156.621094 238.429688 156.621094 Z M 246.304688 183.386719 C 246.214844 183.386719 246.214844 183.386719 246.214844 183.296875 Z M 248.214844 156.621094 C 247.398438 156.621094 247.035156 157.804688 247.035156 158.445312 L 247.125 179.5625 C 247.125 180.746094 246.851562 182.023438 245.578125 182.476562 C 246.214844 183.296875 250.128906 187.027344 251.039062 187.027344 C 253.585938 187.027344 252.769531 179.746094 252.769531 179.019531 L 252.675781 163.359375 C 252.675781 162.359375 252.585938 161.449219 253.859375 161.175781 C 253.132812 160.355469 249.21875 156.621094 248.214844 156.621094 Z M 279.351562 176.921875 C 279.351562 179.746094 278.167969 181.839844 275.070312 181.839844 C 271.339844 181.839844 267.515625 179.382812 264.875 177.015625 C 265.605469 177.199219 266.242188 177.289062 266.96875 177.289062 C 272.339844 177.289062 276.257812 173.191406 278.714844 168.820312 C 279.257812 167.820312 279.804688 166.726562 279.804688 165.542969 C 279.804688 162.085938 271.523438 156.078125 268.0625 156.078125 C 264.964844 156.078125 260.78125 158.078125 260.78125 161.628906 C 260.78125 162.175781 260.871094 162.8125 261.144531 163.269531 C 261.507812 163.996094 265.875 167.546875 266.605469 167.636719 C 266.515625 167.183594 266.421875 166.726562 266.421875 166.273438 C 266.421875 163.359375 268.789062 160.8125 271.703125 160.8125 C 273.160156 160.8125 274.160156 161.082031 274.160156 162.8125 C 274.160156 166.816406 269.792969 172.097656 265.511719 172.097656 L 265.058594 172.097656 C 264.148438 171.1875 260.507812 168.09375 259.324219 168.09375 C 257.59375 168.09375 256.773438 170.003906 256.773438 171.460938 C 256.773438 173.738281 271.429688 183.113281 274.070312 184.480469 C 275.980469 185.480469 278.167969 186.390625 280.351562 186.390625 C 283.71875 186.390625 284.90625 184.570312 284.90625 181.476562 C 284.90625 180.65625 280.351562 177.289062 279.351562 176.921875 Z M 288.726562 183.386719 C 288.636719 183.386719 288.636719 183.386719 288.636719 183.296875 Z M 290.640625 156.621094 C 289.820312 156.621094 289.457031 157.804688 289.457031 158.445312 L 289.546875 179.5625 C 289.546875 180.746094 289.273438 182.023438 288 182.476562 C 288.636719 183.296875 292.550781 187.027344 293.460938 187.027344 C 296.011719 187.027344 295.191406 179.746094 295.191406 179.019531 L 295.097656 163.359375 C 295.097656 162.359375 295.007812 161.449219 296.285156 161.175781 C 295.554688 160.355469 291.640625 156.621094 290.640625 156.621094 Z M 320.636719 168.457031 C 320.089844 173.828125 316.355469 176.832031 311.078125 176.832031 C 309.257812 176.832031 304.886719 176.285156 304.886719 173.738281 C 304.886719 171.917969 307.34375 171.550781 308.800781 171.550781 C 309.984375 171.550781 311.167969 171.917969 312.351562 171.917969 C 315.445312 171.917969 317.359375 169.730469 317.359375 166.726562 C 317.359375 165.179688 316.996094 163.722656 316.085938 162.449219 C 313.988281 159.445312 307.707031 155.257812 304.25 153.890625 C 303.976562 153.890625 303.792969 154.074219 303.792969 154.347656 C 303.792969 155.984375 311.804688 157.804688 311.804688 162.085938 C 311.804688 165.089844 309.984375 167.273438 306.890625 167.273438 C 305.613281 167.273438 304.25 167 302.972656 167 C 300.972656 167 299.332031 167.820312 299.332031 170.003906 C 299.332031 171.644531 300.335938 173.191406 301.519531 174.285156 C 305.613281 178.378906 311.257812 181.109375 317.175781 181.109375 C 321.726562 181.109375 326.277344 178.015625 326.277344 173.007812 C 326.277344 172.097656 321.636719 168.914062 320.636719 168.457031 Z M 319.816406 183.386719 C 319.726562 183.386719 319.726562 183.386719 319.726562 183.296875 Z M 321.726562 156.621094 C 320.910156 156.621094 320.542969 157.804688 320.542969 158.445312 L 320.636719 179.5625 C 320.636719 180.746094 320.363281 182.023438 319.085938 182.476562 C 319.726562 183.296875 323.640625 187.027344 324.550781 187.027344 C 327.097656 187.027344 326.277344 179.746094 326.277344 179.019531 L 326.1875 163.359375 C 326.1875 162.359375 326.097656 161.449219 327.371094 161.175781 C 326.644531 160.355469 322.730469 156.621094 321.726562 156.621094 Z M 356.277344 183.386719 L 356.277344 183.296875 Z M 358.277344 156.621094 C 357.460938 156.621094 357.09375 157.804688 357.09375 158.445312 C 357.09375 165.453125 357.1875 172.554688 357.1875 179.5625 C 357.1875 180.746094 356.914062 182.023438 355.636719 182.476562 C 355.730469 182.660156 360.097656 187.027344 361.191406 187.027344 C 363.558594 187.027344 362.738281 179.929688 362.738281 179.019531 L 362.738281 162.632812 C 362.738281 161.992188 363.105469 161.355469 363.832031 161.175781 C 363.195312 160.265625 359.28125 156.621094 358.277344 156.621094 Z M 344.351562 162.449219 C 345.988281 162.449219 346.171875 163.90625 346.171875 165.179688 C 346.171875 170.097656 343.804688 171.824219 339.070312 171.917969 L 338.980469 172.007812 C 339.890625 173.375 343.53125 176.46875 345.167969 176.46875 C 349.722656 176.46875 351.359375 172.917969 351.359375 168.914062 C 351.359375 168.273438 351.269531 167.730469 351.085938 167.09375 C 350.359375 164.453125 342.074219 157.714844 339.34375 157.714844 C 339.160156 157.714844 338.433594 157.898438 338.25 157.988281 C 338.339844 158.625 343.167969 162.449219 343.710938 162.449219 Z M 347.171875 178.742188 C 345.808594 180.746094 344.621094 181.476562 342.164062 181.476562 C 336.066406 181.476562 335.609375 173.917969 335.609375 169.460938 C 335.609375 168.640625 335.703125 162.8125 335.882812 162.265625 C 336.066406 161.722656 336.976562 161.3125 336.976562 161.175781 C 336.792969 160.445312 332.152344 156.621094 331.421875 156.621094 C 330.695312 156.621094 330.238281 157.625 330.238281 158.261719 C 330.238281 160.902344 330.332031 163.542969 330.332031 166.183594 C 330.332031 175.011719 330.511719 176.742188 337.976562 182.023438 C 340.980469 184.113281 344.257812 186.117188 347.992188 186.117188 C 349.265625 186.117188 352.816406 184.84375 352.816406 183.296875 C 352.816406 182.75 347.898438 178.742188 347.171875 178.742188 Z M 347.171875 178.742188 "/></g></g></svg>